<?xml version="1.0" encoding="utf-8" standalone="no"?>
<!DOCTYPE svg PUBLIC "-//W3C//DTD SVG 1.1//EN"
  "http://www.w3.org/Graphics/SVG/1.1/DTD/svg11.dtd">
<svg xmlns:xlink="http://www.w3.org/1999/xlink" width="237.6pt" height="347.04pt" viewBox="0 0 237.6 347.04" xmlns="http://www.w3.org/2000/svg" version="1.1">
 <metadata>
  <rdf:RDF xmlns:dc="http://purl.org/dc/elements/1.1/" xmlns:cc="http://creativecommons.org/ns#" xmlns:rdf="http://www.w3.org/1999/02/22-rdf-syntax-ns#">
   <cc:Work>
    <dc:type rdf:resource="http://purl.org/dc/dcmitype/StillImage"/>
    <dc:date>2023-11-30T19:34:33.045213</dc:date>
    <dc:format>image/svg+xml</dc:format>
    <dc:creator>
     <cc:Agent>
      <dc:title>Matplotlib v3.8.2, https://matplotlib.org/</dc:title>
     </cc:Agent>
    </dc:creator>
   </cc:Work>
  </rdf:RDF>
 </metadata>
 <defs>
  <style type="text/css">*{stroke-linejoin: round; stroke-linecap: butt}</style>
 </defs>
 <g id="figure_1">
  <g id="patch_1">
   <path d="M 0 347.04 
L 237.6 347.04 
L 237.6 -0 
L 0 -0 
L 0 347.04 
z
" style="fill: none"/>
  </g>
  <g id="axes_1">
   <g id="line2d_1">
    <path d="M 93.124528 324.72 
L 92.548829 312.465798 
L 92.253773 301.958842 
L 92.188121 291.458505 
L 92.34027 282.719922 
L 92.707527 273.997653 
L 93.315258 265.297027 
L 94.188826 256.623368 
L 95.096127 249.707437 
L 96.202783 242.814903 
L 97.521782 235.948491 
L 99.066107 229.110929 
L 100.848748 222.304945 
L 102.882689 215.533265 
L 105.180468 208.798571 
L 108.364261 200.428277 
L 114.876841 183.767088 
L 117.188385 177.100638 
L 118.695351 172.089452 
L 119.949202 167.06319 
L 120.89701 162.017039 
L 121.332722 158.639511 
L 121.59321 155.249578 
L 121.663272 151.845959 
L 121.53874 148.430712 
L 121.226475 145.009234 
L 120.733813 141.587067 
L 120.068094 138.169752 
L 119.236657 134.762831 
L 118.24684 131.371846 
L 116.481206 126.327369 
L 114.400496 121.34992 
L 112.02948 116.458202 
L 109.392924 111.670916 
L 106.515597 107.006767 
L 103.422266 102.484457 
L 100.1377 98.12269 
L 96.686665 93.940169 
L 93.093931 89.955597 
L 89.384265 86.187676 
L 85.582435 82.655111 
L 81.713208 79.376604 
L 81.713208 79.376604 
" clip-path="url(#pd715a77b32)" style="fill: none; stroke: #8c564b; stroke-width: 10; stroke-linecap: square"/>
   </g>
   <g id="line2d_2">
    <path d="M 93.124528 324.72 
L 92.5415 307.548991 
L 92.353187 295.991838 
L 92.394323 285.840927 
L 92.625536 277.131068 
L 93.073539 268.429073 
L 93.772348 259.750332 
L 94.570819 252.546913 
L 95.58677 245.379233 
L 96.839887 238.2562 
L 98.349858 231.186717 
L 99.755997 225.575673 
L 101.349199 220.00916 
L 103.139546 214.491739 
L 105.137078 209.028033 
L 107.348843 203.627963 
L 109.776661 198.310683 
L 112.421833 193.096268 
L 115.285657 188.004798 
L 118.369433 183.05635 
L 121.674458 178.271 
L 125.202033 173.668827 
L 127.994544 170.349485 
L 130.913517 167.152943 
L 133.959501 164.087673 
L 137.133044 161.162143 
L 140.434693 158.384825 
L 143.864997 155.764188 
L 147.424504 153.308703 
L 151.113762 151.02684 
L 154.933318 148.927069 
L 158.883722 147.01786 
L 162.96552 145.307684 
L 167.179261 143.805011 
L 171.525492 142.51831 
L 173.003774 142.138868 
L 173.003774 142.138868 
" clip-path="url(#pd715a77b32)" style="fill: none; stroke: #8c564b; stroke-width: 10; stroke-linecap: square"/>
   </g>
   <g id="line2d_3">
    <path d="M 91.983396 324.72 
L 91.649544 318.801048 
L 91.50235 311.743747 
L 91.587701 303.50775 
L 91.956992 293.010089 
L 93.308248 260.845754 
L 93.34839 252.270722 
L 93.149276 244.82406 
L 92.761737 238.502504 
L 92.138213 232.253672 
L 91.413875 227.112899 
L 90.482481 222.042101 
L 89.324403 217.050129 
L 87.920016 212.145833 
L 86.605976 208.29147 
L 85.111687 204.503416 
L 83.427103 200.786202 
L 81.542173 197.144361 
L 79.446851 193.582422 
L 77.131086 190.104919 
L 74.584831 186.716382 
L 71.798036 183.421343 
L 68.760653 180.224334 
L 65.462633 177.129886 
L 64.596226 176.37283 
L 64.596226 176.37283 
" clip-path="url(#pd715a77b32)" style="fill: none; stroke: #8c564b; stroke-width: 10; stroke-linecap: square"/>
   </g>
   <g id="line2d_4">
    <path d="M 93.124528 324.72 
L 93.282126 318.211418 
L 93.242933 309.18382 
L 93.13806 294.32393 
L 93.313649 287.727761 
L 93.686808 281.97966 
L 94.220476 277.079376 
L 94.993898 272.211359 
L 95.850529 268.184559 
L 96.922108 264.19123 
L 98.213394 260.248251 
L 99.723338 256.376481 
L 101.450885 252.596788 
L 103.394977 248.93004 
L 105.554558 245.397102 
L 107.928572 242.018843 
L 109.981464 239.441627 
L 112.170376 236.987444 
L 114.494766 234.666978 
L 116.954094 232.490913 
L 119.547818 230.469933 
L 122.275398 228.614722 
L 125.136292 226.935964 
L 128.12996 225.444342 
L 131.255861 224.150542 
L 134.513454 223.065246 
L 137.902197 222.19914 
L 138.769811 222.018113 
L 138.769811 222.018113 
" clip-path="url(#pd715a77b32)" style="fill: none; stroke: #8c564b; stroke-width: 10; stroke-linecap: square"/>
   </g>
   <g id="patch_2">
    <path d="M 81.713208 136.433208 
C 96.844796 136.433208 111.35867 130.421364 122.058319 119.721715 
C 132.757968 109.022067 138.769811 94.508192 138.769811 79.376604 
C 138.769811 64.245016 132.757968 49.731141 122.058319 39.031492 
C 111.35867 28.331844 96.844796 22.32 81.713208 22.32 
C 66.581619 22.32 52.067745 28.331844 41.368096 39.031492 
C 30.668447 49.731141 24.656604 64.245016 24.656604 79.376604 
C 24.656604 94.508192 30.668447 109.022067 41.368096 119.721715 
C 52.067745 130.421364 66.581619 136.433208 81.713208 136.433208 
z
" clip-path="url(#pd715a77b32)" style="fill: #2ca02c"/>
   </g>
   <g id="patch_3">
    <path d="M 173.003774 182.078491 
C 183.595885 182.078491 193.755598 177.8702 201.245352 170.380446 
C 208.735106 162.890692 212.943396 152.73098 212.943396 142.138868 
C 212.943396 131.546756 208.735106 121.387044 201.245352 113.89729 
C 193.755598 106.407536 183.595885 102.199245 173.003774 102.199245 
C 162.411662 102.199245 152.25195 106.407536 144.762196 113.89729 
C 137.272442 121.387044 133.064151 131.546756 133.064151 142.138868 
C 133.064151 152.73098 137.272442 162.890692 144.762196 170.380446 
C 152.25195 177.8702 162.411662 182.078491 173.003774 182.078491 
z
" clip-path="url(#pd715a77b32)" style="fill: #2ca02c"/>
   </g>
   <g id="patch_4">
    <path d="M 64.596226 210.606792 
C 73.675179 210.606792 82.383504 206.999686 88.803293 200.579897 
C 95.223082 194.160108 98.830189 185.451783 98.830189 176.37283 
C 98.830189 167.293877 95.223082 158.585552 88.803293 152.165763 
C 82.383504 145.745974 73.675179 142.138868 64.596226 142.138868 
C 55.517273 142.138868 46.808949 145.745974 40.38916 152.165763 
C 33.96937 158.585552 30.362264 167.293877 30.362264 176.37283 
C 30.362264 185.451783 33.96937 194.160108 40.38916 200.579897 
C 46.808949 206.999686 55.517273 210.606792 64.596226 210.606792 
z
" clip-path="url(#pd715a77b32)" style="fill: #2ca02c"/>
   </g>
   <g id="patch_5">
    <path d="M 138.769811 244.840755 
C 144.822447 244.840755 150.627996 242.436017 154.907856 238.156158 
C 159.187715 233.876298 161.592453 228.070748 161.592453 222.018113 
C 161.592453 215.965478 159.187715 210.159928 154.907856 205.880069 
C 150.627996 201.600209 144.822447 199.195472 138.769811 199.195472 
C 132.717176 199.195472 126.911626 201.600209 122.631767 205.880069 
C 118.351907 210.159928 115.94717 215.965478 115.94717 222.018113 
C 115.94717 228.070748 118.351907 233.876298 122.631767 238.156158 
C 126.911626 242.436017 132.717176 244.840755 138.769811 244.840755 
z
" clip-path="url(#pd715a77b32)" style="fill: #2ca02c"/>
   </g>
  </g>
 </g>
 <defs>
  <clipPath id="pd715a77b32">
   <rect x="7.2" y="7.2" width="223.2" height="332.64"/>
  </clipPath>
 </defs>
</svg>
